<svg width="100" height="100" viewBox="0 0 100 100" fill="none" xmlns="http://www.w3.org/2000/svg">
<path d="M50 100C77.6142 100 100 77.6142 100 50C100 22.3858 77.6142 0 50 0C22.3858 0 0 22.3858 0 50C0 77.6142 22.3858 100 50 100Z" fill="#181818"/>
<path d="M43.3369 61.6685C43.3369 62.6585 43.0434 63.6263 42.4934 64.4494C41.9434 65.2726 41.1616 65.9142 40.247 66.293C39.3323 66.6719 38.3259 66.771 37.3549 66.5779C36.384 66.3847 35.4921 65.908 34.792 65.208C34.092 64.5079 33.6153 63.616 33.4221 62.6451C33.229 61.6741 33.3281 60.6677 33.707 59.753C34.0858 58.8384 34.7274 58.0566 35.5505 57.5066C36.3737 56.9566 37.3415 56.663 38.3315 56.663H43.3369V43.3371H38.3315C34.7058 43.3371 31.1616 44.4122 28.147 46.4265C25.1325 48.4408 22.7829 51.3038 21.3954 54.6534C20.0079 58.003 19.6449 61.6889 20.3522 65.2448C21.0596 68.8008 22.8055 72.0671 25.3692 74.6308C27.9329 77.1945 31.1992 78.9404 34.7552 79.6478C38.3111 80.3551 41.997 79.992 45.3466 78.6046C48.6962 77.2171 51.5592 74.8675 53.5735 71.8529C55.5878 68.8384 56.6629 65.2942 56.6629 61.6685V56.663H43.3369V61.6685Z" fill="#FF7964"/>
<path d="M43.3369 56.663H56.6629V43.3371H43.3369V56.663Z" fill="#FFEF6A"/>
<path d="M56.6393 38.3349C56.6396 37.3449 56.9334 36.3773 57.4837 35.5543C58.0339 34.7312 58.8158 34.0899 59.7305 33.7113C60.6453 33.3327 61.6517 33.2338 62.6226 33.4272C63.5936 33.6206 64.4853 34.0975 65.1852 34.7978C65.885 35.498 66.3615 36.39 66.5544 37.361C66.7473 38.332 66.6479 39.3384 66.2688 40.253C65.8897 41.1675 65.248 41.9491 64.4247 42.4989C63.6014 43.0487 62.6335 43.342 61.6435 43.3417L56.638 43.3404L56.6346 56.6664L61.64 56.6677C65.2657 56.6686 68.8101 55.5944 71.8253 53.5809C74.8404 51.5675 77.1907 48.7051 78.5791 45.3558C79.9674 42.0065 80.3314 38.3208 79.625 34.7647C78.9186 31.2085 77.1735 27.9417 74.6105 25.3774C72.0475 22.813 68.7816 21.0662 65.2258 20.358C61.6701 19.6497 57.9841 20.0118 54.6341 21.3984C51.2841 22.785 48.4205 25.1338 46.4055 28.1479C44.3904 31.1619 43.3144 34.7058 43.3134 38.3315L43.3121 43.3369L56.638 43.3404L56.6393 38.3349Z" fill="#FF7964"/>
<path d="M56.6285 43.3181L43.3026 43.3146L43.2991 56.6406L56.625 56.644L56.6285 43.3181Z" fill="#FFEF6A"/>
</svg>
