<svg width="100" height="100" viewBox="0 0 100 100" fill="none" xmlns="http://www.w3.org/2000/svg">
<path d="M50 100C77.6142 100 100 77.6142 100 50C100 22.3858 77.6142 0 50 0C22.3858 0 0 22.3858 0 50C0 77.6142 22.3858 100 50 100Z" fill="#181818"/>
<path d="M43.71 61.59C43.71 62.6382 43.3992 63.6629 42.8168 64.5345C42.2344 65.4061 41.4067 66.0854 40.4382 66.4866C39.4698 66.8877 38.4041 66.9927 37.376 66.7882C36.3479 66.5837 35.4036 66.0789 34.6623 65.3377C33.9211 64.5964 33.4163 63.6521 33.2118 62.624C33.0073 61.5959 33.1123 60.5302 33.5134 59.5618C33.9146 58.5933 34.5939 57.7656 35.4655 57.1832C36.3371 56.6008 37.3618 56.29 38.41 56.29H43.71V42.18H38.41C34.5711 42.18 30.8183 43.3184 27.6264 45.4512C24.4344 47.584 21.9466 50.6154 20.4775 54.1621C19.0084 57.7088 18.624 61.6115 19.373 65.3767C20.1219 69.1419 21.9705 72.6004 24.6851 75.3149C27.3996 78.0295 30.8581 79.8781 34.6233 80.627C38.3885 81.376 42.2912 80.9916 45.8379 79.5225C49.3846 78.0534 52.416 75.5656 54.5488 72.3736C56.6816 69.1817 57.82 65.4289 57.82 61.59V56.29H43.71V61.59Z" fill="#FF7964"/>
<path d="M43.71 56.29H57.82V42.18H43.71V56.29Z" fill="#FFEF6A"/>
<path d="M57.7951 36.8835C57.7953 35.8353 58.1065 34.8107 58.6891 33.9392C59.2717 33.0678 60.0996 32.3887 61.0681 31.9878C62.0367 31.5869 63.1024 31.4823 64.1304 31.687C65.1585 31.8918 66.1027 32.3968 66.8437 33.1382C67.5847 33.8796 68.0893 34.8241 68.2935 35.8523C68.4977 36.8804 68.3925 37.9461 67.9911 38.9144C67.5897 39.8828 66.9102 40.7103 66.0384 41.2925C65.1667 41.8746 64.1419 42.1852 63.0937 42.1849L57.7937 42.1835L57.79 56.2935L63.09 56.2949C66.9289 56.2959 70.682 55.1585 73.8745 53.0266C77.067 50.8946 79.5556 47.8638 81.0256 44.3175C82.4957 40.7712 82.8811 36.8686 82.1331 33.1032C81.3851 29.3378 79.5374 25.8788 76.8236 23.1636C74.1098 20.4483 70.6517 18.5988 66.8868 17.8489C63.1218 17.0989 59.219 17.4823 55.6719 18.9505C52.1248 20.4186 49.0927 22.9057 46.9591 26.0971C44.8254 29.2885 43.6861 33.0409 43.6851 36.8798L43.6837 42.1798L57.7937 42.1835L57.7951 36.8835Z" fill="#FF7964"/>
<path d="M57.7836 42.1598L43.6736 42.1561L43.6699 56.2661L57.7799 56.2698L57.7836 42.1598Z" fill="#FFEF6A"/>
</svg>
